<?xml version="1.0" standalone="no"?>
<!DOCTYPE svg PUBLIC "-//W3C//DTD SVG 20010904//EN"
 "http://www.w3.org/TR/2001/REC-SVG-20010904/DTD/svg10.dtd">
<svg version="1.0" xmlns="http://www.w3.org/2000/svg"
 width="206.000000pt" height="206.000000pt" viewBox="0 0 206.000000 206.000000"
 preserveAspectRatio="xMidYMid meet">

<g transform="translate(0.000000,206.000000) scale(0.100000,-0.100000)"
fill="#000000" stroke="none">
<path d="M0 1915 l0 -144 29 5 c16 4 32 1 35 -5 4 -6 11 -9 16 -6 4 3 6 -4 3
-15 -4 -15 0 -20 16 -20 11 0 21 -4 21 -9 0 -10 -48 -21 -91 -21 l-29 0 0
-185 0 -185 28 17 c15 9 42 30 60 46 19 15 39 26 45 24 21 -6 61 -90 67 -137
4 -33 10 -44 20 -42 68 16 82 15 105 -12 36 -42 58 -35 80 28 16 46 36 53 95
32 32 -11 64 -16 88 -13 94 14 87 18 90 -40 3 -48 0 -55 -34 -93 -21 -23 -56
-51 -78 -62 -51 -26 -54 -30 -62 -98 -4 -30 -18 -84 -31 -119 -19 -51 -21 -66
-11 -73 9 -7 7 -8 -7 -4 -82 20 -110 26 -190 35 -119 14 -161 9 -218 -23 l-47
-28 0 -384 0 -384 957 0 957 0 -51 53 c-44 44 -54 63 -72 128 -12 41 -21 79
-21 85 0 20 49 -52 50 -73 0 -12 6 -26 14 -30 8 -4 50 -43 95 -86 56 -54 88
-77 105 -77 l25 0 1 370 c0 214 -4 369 -9 368 -5 -2 -18 8 -30 21 -21 24 -23
23 -25 -14 -2 -32 -56 -31 -83 3 -12 15 -22 33 -23 40 0 19 -27 14 -44 -9 -9
-13 -21 -19 -30 -16 -11 5 -16 0 -16 -14 0 -12 -8 -23 -19 -26 -31 -8 -34 -32
-5 -45 29 -14 31 -54 1 -52 -12 1 -17 -6 -17 -23 0 -16 -4 -22 -12 -17 -34 21
-118 -1 -118 -31 0 -18 -31 -35 -64 -35 -14 0 -27 -6 -27 -12 -1 -7 -2 -20 -3
-28 -2 -22 -30 -15 -114 28 -97 49 -104 58 -53 72 23 6 57 12 76 14 52 4 72
28 78 94 5 53 31 159 41 169 13 14 43 7 68 -16 25 -22 28 -30 23 -63 -6 -36 5
-52 20 -28 3 6 17 7 29 4 18 -4 25 -1 29 16 3 12 15 24 27 27 15 4 19 11 15
22 -4 9 -9 40 -12 68 -7 69 -22 81 -59 50 -16 -13 -39 -27 -50 -31 -29 -9 -74
10 -74 30 0 11 -5 14 -17 10 -17 -6 -17 -5 -1 7 21 16 11 31 -22 35 -105 11
-123 15 -127 33 -7 27 -18 24 -64 -18 -37 -34 -46 -37 -91 -35 -28 1 -57 -3
-64 -9 -7 -6 -17 -8 -23 -5 -5 3 -11 1 -13 -5 -2 -7 -12 -7 -29 0 -26 9 -49
53 -49 91 0 10 -11 25 -24 33 -23 16 -23 17 -9 61 8 24 20 47 27 49 16 6 142
-21 175 -37 14 -7 56 -23 94 -35 37 -13 67 -25 67 -28 0 -3 -9 -3 -20 0 -11 3
-18 1 -14 -4 12 -20 57 -8 85 23 l30 31 37 -41 c20 -23 49 -44 65 -48 15 -3
27 -10 27 -14 0 -4 -12 -5 -27 -3 -22 4 -25 2 -13 -6 38 -27 70 6 70 72 0 25
-7 36 -30 49 -32 18 -42 58 -15 58 25 0 17 17 -14 28 -24 8 -33 6 -56 -14 -31
-26 -52 -27 -47 -1 5 30 -46 57 -109 57 -33 0 -59 -4 -59 -8 0 -5 -37 -9 -82
-10 -46 -1 -102 -5 -125 -8 -41 -6 -43 -5 -43 19 0 14 6 27 13 30 9 3 13 31
14 88 2 73 5 86 24 101 11 10 25 16 29 13 4 -3 25 1 46 9 50 17 134 6 192 -25
76 -41 179 -152 151 -161 -8 -3 -9 -15 -4 -36 8 -37 27 -33 23 5 -2 17 4 29
17 37 11 6 22 14 25 17 17 21 110 30 139 14 15 -8 31 -9 40 -4 76 40 88 42
136 19 43 -21 80 -54 125 -110 l19 -25 1 133 0 132 -47 -5 c-27 -3 -57 -5 -68
-4 -11 0 -30 2 -42 3 -12 0 -21 3 -20 6 2 12 -15 87 -25 106 -10 21 -11 21
-29 3 -17 -17 -35 -19 -161 -19 -141 1 -178 8 -178 37 0 6 -7 16 -15 23 -8 7
-15 21 -15 31 0 11 -7 19 -15 19 -8 0 -15 8 -15 18 0 11 -3 13 -8 6 -4 -8 -27
-10 -62 -7 -30 3 -65 5 -77 5 -25 0 -31 13 -10 21 7 4 6 6 -5 6 -9 1 -24 -6
-33 -16 -16 -15 -19 -15 -46 1 -16 9 -29 13 -29 9 0 -5 -9 -9 -20 -9 -11 0
-20 4 -20 8 0 4 -4 8 -9 8 -5 0 -7 -10 -4 -22 5 -23 5 -23 -10 -3 -9 11 -17
15 -17 8 0 -7 -5 -13 -11 -13 -6 0 -9 7 -6 15 4 8 1 17 -5 21 -7 4 -8 3 -4 -4
4 -7 2 -12 -3 -12 -6 0 -11 -8 -11 -17 -1 -20 -32 -46 -67 -57 -13 -4 -23 -14
-23 -22 0 -8 -5 -12 -10 -9 -6 4 -17 1 -25 -5 -8 -6 -19 -9 -25 -5 -6 4 -10
-4 -10 -20 0 -24 -3 -26 -37 -23 -31 2 -38 0 -37 -15 1 -11 -4 -16 -14 -15 -9
2 -17 -2 -17 -9 0 -19 -12 -25 -35 -18 -20 6 -20 8 -6 24 20 22 20 35 0 27 -8
-3 -12 -2 -9 4 3 6 0 10 -7 10 -7 0 -1 8 15 18 15 10 37 29 49 41 l21 23 -22
-7 c-19 -6 -22 -4 -19 17 2 19 -2 23 -22 24 -14 1 -42 5 -63 9 -33 7 -37 5
-30 -11 6 -17 4 -16 -29 3 -20 12 -39 19 -42 16 -3 -3 9 -14 27 -23 42 -23 51
-79 15 -104 -20 -14 -42 -16 -158 -10 -74 4 -145 11 -158 15 -30 12 -45 52
-30 84 11 25 12 25 147 26 75 0 129 3 121 6 -8 3 -18 11 -22 16 -3 6 -20 10
-37 9 -17 0 -31 2 -31 6 0 4 -25 23 -55 41 -30 19 -55 38 -55 43 0 15 40 28
89 28 44 0 51 3 51 20 0 15 -7 20 -25 20 -18 0 -25 5 -25 19 0 24 -15 30 -57
23 -21 -3 -33 0 -33 7 0 6 16 11 38 11 31 1 34 3 22 13 -17 13 -15 47 2 47 5
0 8 -7 4 -15 -4 -11 1 -15 19 -15 20 0 25 -6 31 -35 7 -42 14 -48 32 -29 9 10
10 14 1 14 -7 0 -5 8 6 20 10 11 28 20 40 20 36 0 36 11 -2 46 l-36 34 -248 0
-249 0 0 -145z m385 -15 c17 -6 14 -9 -17 -15 -28 -5 -41 -3 -53 9 -15 15 -14
16 17 15 18 0 42 -4 53 -9z m-160 -70 c4 -6 -7 -10 -25 -10 -18 0 -29 4 -25
10 3 6 15 10 25 10 10 0 22 -4 25 -10z m-90 -80 c4 -6 -5 -10 -20 -10 -15 0
-24 4 -20 10 3 6 12 10 20 10 8 0 17 -4 20 -10z m1691 -244 c20 -20 18 -76 -3
-92 -19 -14 -129 -17 -172 -5 -21 6 -25 13 -26 51 -1 25 0 48 2 53 3 4 45 7
94 7 65 0 94 -4 105 -14z m-456 -276 c12 -8 9 -10 -13 -10 -16 0 -26 4 -22 10
8 12 16 12 35 0z m-480 -101 c0 -4 -7 -9 -15 -13 -8 -3 -15 -15 -15 -27 0 -18
3 -19 15 -9 8 6 20 10 27 8 7 -3 23 7 36 21 33 38 44 14 36 -79 -6 -70 -23
-132 -24 -86 0 15 -5 17 -35 12 -30 -6 -39 -3 -60 20 -34 37 -75 177 -46 160
4 -3 16 1 27 8 14 10 22 11 36 2 10 -6 18 -14 18 -17z m724 5 c16 -6 23 -33 9
-35 -5 0 -16 -2 -25 -4 -19 -3 -22 4 -12 29 7 18 7 18 28 10z m-174 -13 c0
-12 -20 -25 -27 -18 -7 7 6 27 18 27 5 0 9 -4 9 -9z m-16 -140 c12 -13 14 -21
6 -26 -6 -3 -9 -14 -8 -23 5 -30 -35 -26 -49 5 -11 22 -10 29 4 45 20 23 26
23 47 -1z m-139 -41 c3 -5 -1 -10 -10 -10 -9 0 -13 5 -10 10 3 6 8 10 10 10 2
0 7 -4 10 -10z m-569 -56 c30 -29 35 -40 29 -62 -14 -57 -31 -64 -128 -58 -48
3 -99 9 -113 12 -24 6 -24 7 23 52 37 34 120 85 151 91 1 1 19 -15 38 -35z
m563 14 c-4 -32 2 -68 11 -68 6 0 10 7 10 15 0 15 33 33 77 41 32 6 101 -24
109 -48 7 -23 1 -31 -28 -35 -29 -5 -31 -8 -18 -32 6 -12 20 -21 30 -21 13 0
20 -7 20 -20 0 -13 -5 -18 -15 -14 -8 4 -15 1 -15 -5 0 -13 -63 -15 -107 -2
-17 5 -40 18 -52 30 -12 12 -28 21 -36 21 -17 0 -21 45 -5 55 14 9 8 47 -9 61
-8 6 -11 16 -7 22 10 16 37 15 35 0z m597 -164 c16 -24 16 -26 -7 -42 -13 -9
-27 -17 -31 -16 -5 1 -15 2 -23 3 -19 1 -14 34 10 61 24 26 31 25 51 -6z
m-1190 -30 c2 -23 27 -57 46 -62 17 -5 58 -47 58 -59 0 -8 4 -12 8 -9 4 2 6
-10 4 -27 -4 -40 15 -97 27 -78 6 10 10 9 15 -4 3 -9 4 -21 0 -26 -3 -5 1 -9
10 -9 8 0 20 -2 28 -3 7 -2 10 -2 6 0 -28 16 42 46 82 36 19 -5 29 -33 12 -33
-5 0 -17 -6 -27 -14 -16 -12 -17 -16 -6 -30 11 -13 11 -16 0 -16 -8 0 -27 -14
-43 -30 -17 -17 -34 -29 -40 -27 -6 2 -16 -2 -23 -9 -15 -15 -17 -54 -3 -54 6
0 10 -7 10 -15 0 -8 2 -15 4 -15 2 0 12 -3 22 -7 13 -5 15 -3 9 7 -6 9 -4 11
4 6 7 -5 10 -15 7 -23 -4 -9 -2 -21 4 -28 13 -15 -13 -40 -31 -29 -8 4 -9 3
-5 -4 4 -7 2 -12 -3 -12 -6 0 -11 8 -11 18 -1 27 -26 67 -34 53 -4 -7 -3 -18
3 -25 9 -10 8 -15 -5 -20 -13 -5 -14 -9 -4 -21 10 -12 7 -14 -17 -12 -22 2
-29 8 -31 27 -3 24 -3 24 11 6 14 -19 15 -19 21 2 11 35 10 82 -2 94 -16 16
-25 4 -25 -32 0 -17 -4 -30 -9 -30 -14 0 -9 54 8 78 15 22 12 42 -7 42 -5 0
-13 -10 -18 -22 -7 -20 -12 -15 -41 47 -60 132 -70 164 -70 228 0 72 12 122
36 148 10 11 18 19 18 19 1 0 2 -12 2 -26z m194 -108 c0 -2 3 -12 7 -21 5 -15
3 -16 -15 -6 -25 13 -29 31 -7 31 8 0 15 -2 15 -4z m-3 -52 c-3 -3 -12 -4 -19
-1 -8 3 -5 6 6 6 11 1 17 -2 13 -5z m3 -45 c0 -20 -15 -26 -25 -9 -9 15 3 43
15 35 5 -3 10 -15 10 -26z m918 15 c15 -3 22 -11 22 -28 0 -28 -16 -36 -70
-36 -21 0 -42 -4 -45 -10 -3 -5 -15 -10 -26 -10 -10 0 -19 -7 -19 -15 0 -8 -2
-15 -5 -15 -11 0 -55 24 -55 31 0 10 46 20 67 13 17 -5 17 -5 1 9 -33 26 -21
45 36 56 41 9 67 10 94 5z m-803 -134 c-3 -5 -12 -10 -18 -10 -7 0 -6 4 3 10
19 12 23 12 15 0z m185 -10 c0 -25 -112 -95 -140 -87 -11 3 -24 -6 -36 -22
-41 -56 -102 -103 -88 -67 3 8 1 17 -5 21 -6 3 -11 18 -10 33 0 16 3 21 6 12
13 -32 68 -44 56 -12 -3 9 -3 14 2 10 7 -7 55 55 55 70 0 4 -5 -1 -11 -10 -15
-26 -46 -41 -55 -26 -4 7 -3 8 4 4 8 -5 12 1 12 16 l-1 23 -18 -22 c-10 -12
-21 -19 -25 -16 -3 4 -6 0 -6 -7 0 -7 -3 -11 -6 -8 -8 8 15 50 35 65 12 8 18
8 23 0 5 -8 13 -6 27 7 11 10 23 16 28 13 4 -2 17 -1 28 3 28 10 125 10 125 0z
m580 -50 c0 -5 -2 -10 -4 -10 -3 0 -8 5 -11 10 -3 6 -1 10 4 10 6 0 11 -4 11
-10z m276 -146 c-2 -6 1 -17 7 -23 14 -14 2 -14 -26 1 -21 11 -21 10 -7 -7 13
-17 13 -18 0 -10 -23 12 -50 37 -50 45 0 4 12 6 28 4 15 -2 21 -1 14 2 -6 3
-10 10 -7 15 8 12 46 -13 41 -27z m-86 -49 c0 -8 -2 -15 -4 -15 -2 0 -6 7 -10
15 -3 8 -1 15 4 15 6 0 10 -7 10 -15z"/>
<path d="M1440 826 c0 -2 9 -6 20 -9 11 -3 18 -1 14 4 -5 9 -34 13 -34 5z"/>
<path d="M1846 704 c-4 -10 -1 -14 6 -12 15 5 23 28 10 28 -5 0 -13 -7 -16
-16z"/>
<path d="M912 400 c0 -14 2 -19 5 -12 2 6 2 18 0 25 -3 6 -5 1 -5 -13z"/>
<path d="M911 2055 c-1 -5 8 -21 18 -34 15 -20 23 -23 47 -16 27 8 27 9 7 12
-13 3 -23 9 -23 15 0 5 -7 8 -15 4 -8 -3 -19 2 -24 12 -6 9 -10 13 -10 7z"/>
<path d="M1012 2036 c3 -19 11 -21 95 -26 72 -4 96 -9 113 -25 l23 -20 -8 23
c-6 21 -4 23 14 17 12 -3 21 -2 21 3 0 10 26 8 108 -10 29 -6 55 -15 58 -20 3
-4 -2 -5 -12 -1 -14 5 -15 3 -5 -15 6 -11 11 -32 11 -47 0 -15 4 -24 10 -20 6
3 7 -1 4 -9 -8 -21 6 -20 22 2 12 15 13 15 14 1 0 -9 8 -23 18 -30 14 -11 15
-11 5 0 -6 7 -9 20 -6 28 4 11 8 12 13 3 6 -9 31 -10 105 -1 107 11 133 24
110 54 -18 25 -227 47 -257 28 -16 -10 -19 -9 -16 5 2 11 -8 21 -32 30 l-35
12 30 2 c28 1 29 2 8 10 -13 5 -23 14 -23 20 0 13 -152 10 -185 -4 -16 -6 -17
-6 -5 3 8 6 10 11 5 11 -6 0 -17 -6 -23 -12 -9 -9 -15 -10 -20 -2 -4 6 -40 11
-85 11 -74 1 -78 0 -75 -21z m43 -7 c-3 -4 -12 -6 -20 -3 -8 4 -13 10 -10 15
3 4 12 6 20 3 8 -4 13 -10 10 -15z m232 15 c-3 -3 -12 -4 -19 -1 -8 3 -5 6 6
6 11 1 17 -2 13 -5z m-152 -14 c-11 -5 -29 -8 -40 -8 -16 0 -15 2 5 8 34 11
60 11 35 0z"/>
<path d="M1963 2043 c-26 -18 -31 -58 -8 -67 8 -3 15 -14 15 -25 0 -11 8 -25
18 -30 14 -9 15 -12 3 -20 -13 -8 -12 -16 6 -53 11 -24 29 -65 39 -93 l19 -50
3 94 c2 60 -1 98 -9 107 -8 10 -8 14 0 14 7 0 11 25 11 70 l0 70 -37 -1 c-21
0 -48 -7 -60 -16z"/>
<path d="M980 1870 c0 -5 5 -10 10 -10 6 0 10 5 10 10 0 6 -4 10 -10 10 -5 0
-10 -4 -10 -10z"/>
<path d="M548 1733 c7 -3 16 -2 19 1 4 3 -2 6 -13 5 -11 0 -14 -3 -6 -6z"/>
<path d="M1870 1619 c0 -11 37 -49 47 -49 2 0 -4 14 -14 30 -18 31 -33 39 -33
19z"/>
<path d="M2001 1140 c-40 -6 -80 -38 -81 -63 0 -4 -9 -20 -20 -36 -23 -29 -40
-127 -33 -177 4 -27 8 -30 31 -26 14 3 42 16 61 29 21 14 37 20 39 14 2 -6 12
-11 23 -11 10 0 19 -4 19 -10 0 -5 5 -10 10 -10 6 0 10 57 10 150 0 83 -3 149
-7 149 -5 -1 -28 -5 -52 -9z"/>
</g>
</svg>
